<?xml version="1.0" encoding="UTF-8" standalone="no"?>
<svg
   xmlns:dc="http://purl.org/dc/elements/1.1/"
   xmlns:cc="http://creativecommons.org/ns#"
   xmlns:rdf="http://www.w3.org/1999/02/22-rdf-syntax-ns#"
   xmlns:svg="http://www.w3.org/2000/svg"
   xmlns="http://www.w3.org/2000/svg"
   id="svg4704"
   version="1.1"
   viewBox="0 0 197.11408 58.208332"
   height="220"
   width="744.99811">
  <defs
     id="defs4698" />
  <metadata
     id="metadata4701">
    <rdf:RDF>
      <cc:Work
         rdf:about="">
        <dc:format>image/svg+xml</dc:format>
        <dc:type
           rdf:resource="http://purl.org/dc/dcmitype/StillImage" />
        <dc:title></dc:title>
      </cc:Work>
    </rdf:RDF>
  </metadata>
  <g
     transform="translate(-3.4063032,-8.7779077)"
     id="layer1">
    <path
       id="path4518-7-6"
       d="m 43.093803,11.423741 v 29.120186 a 13.229166,13.229166 0 0 0 -7.9375,-2.661853 13.229166,13.229166 0 0 0 -13.229166,13.229166 13.229166,13.229166 0 0 0 13.229166,13.229167 13.229166,13.229166 0 0 0 7.9375,-2.665987 v 2.665987 h 5.291666 V 51.11124 11.423741 Z m 39.686983,0 v 52.916666 h 5.291667 V 11.423741 Z M 25.895887,22.007074 A 19.843749,19.843749 0 0 0 6.0521365,41.850824 H 8.6979698 A 17.197915,17.197915 0 0 1 25.895887,24.652907 Z m 72.759899,2.645833 a 3.9687499,3.9687499 0 0 0 -3.96875,3.96875 3.9687499,3.9687499 0 0 0 3.96875,3.96875 3.9687499,3.9687499 0 0 0 3.968754,-3.96875 3.9687499,3.9687499 0 0 0 -3.968754,-3.96875 z M 25.895887,27.29874 A 14.552082,14.552082 0 0 0 11.343803,41.850824 h 2.645833 a 11.906249,11.906249 0 0 1 11.906251,-11.90625 z m 0,5.291667 a 9.2604158,9.2604158 0 0 0 -9.260417,9.260417 h 2.645833 a 6.6145832,6.6145832 0 0 1 6.614584,-6.614584 z m 38.364066,5.291667 a 13.229166,13.229166 0 0 0 -13.229166,13.229166 13.229166,13.229166 0 0 0 13.229166,13.229167 13.229166,13.229166 0 0 0 12.10727,-7.9375 h -6.205821 a 7.9374999,7.9374999 0 0 1 -5.901449,2.645833 7.9374999,7.9374999 0 0 1 -7.474479,-5.291667 h 6.787698 8.160226 5.474083 A 13.229166,13.229166 0 0 0 77.48912,51.11124 13.229166,13.229166 0 0 0 64.259953,37.882074 Z m 31.75,0 v 26.458333 h 5.291667 V 37.882074 Z m 13.229167,0 V 51.11124 64.340407 h 5.29167 V 61.67442 51.11124 a 7.9374999,7.9374999 0 0 1 7.9375,-7.9375 7.9374999,7.9374999 0 0 1 7.9375,7.9375 v 10.567313 2.661854 h 5.29167 V 51.11124 a 13.229166,13.229166 0 0 0 -13.22917,-13.229166 13.229166,13.229166 0 0 0 -7.9375,2.665986 v -2.665986 z m 42.33334,0 a 13.229166,13.229166 0 0 0 -13.22917,13.229166 13.229166,13.229166 0 0 0 13.22917,13.229167 13.229166,13.229166 0 0 0 12.10726,-7.9375 h -6.2022 a 7.9374999,7.9374999 0 0 1 -5.90506,2.645833 7.9374999,7.9374999 0 0 1 -7.47448,-5.291667 h 14.94792 3.10989 2.36419 a 13.229166,13.229166 0 0 0 0.28164,-2.645833 13.229166,13.229166 0 0 0 -13.22916,-13.229166 z m 18.52083,0 c -1.46579,0 -2.64584,1.180041 -2.64584,2.645833 v 21.166666 c 0,1.465792 1.18005,2.645834 2.64584,2.645834 h 25.13541 c 1.4658,0 2.64584,-1.180042 2.64584,-2.645834 V 40.527907 c 0,-1.465792 -1.18004,-2.645833 -2.64584,-2.645833 z m 7.9375,3.307291 a 1.9843749,1.9843749 0 0 1 1.98437,1.984375 1.9843749,1.9843749 0 0 1 -1.98437,1.984375 1.9843749,1.9843749 0 0 1 -1.98438,-1.984375 1.9843749,1.9843749 0 0 1 1.98438,-1.984375 z M 35.156303,43.17374 a 7.9374999,7.9374999 0 0 1 7.9375,7.9375 7.9374999,7.9374999 0 0 1 -7.9375,7.9375 7.9374999,7.9374999 0 0 1 -7.9375,-7.9375 7.9374999,7.9374999 0 0 1 7.9375,-7.9375 z m 29.10365,0 a 7.9374999,7.9374999 0 0 1 7.474479,5.291667 H 56.786506 a 7.9374999,7.9374999 0 0 1 7.473447,-5.291667 z m 87.312507,0 a 7.9374999,7.9374999 0 0 1 7.47447,5.291667 h -14.94792 a 7.9374999,7.9374999 0 0 1 7.47345,-5.291667 z m 25.13541,4.630209 h 2.64583 v 13.229166 h -2.64583 z m 11.90625,0 a 6.6145835,6.6145835 0 0 1 6.61458,6.614583 6.6145835,6.6145835 0 0 1 -6.61458,6.614583 6.6145835,6.6145835 0 0 1 -6.61458,-6.614583 6.6145835,6.6145835 0 0 1 6.61458,-6.614583 z m 0,2.645833 a 3.9687499,3.9687499 0 0 0 -3.96875,3.96875 3.9687499,3.9687499 0 0 0 3.96875,3.96875 3.9687499,3.9687499 0 0 0 3.96875,-3.96875 3.9687499,3.9687499 0 0 0 -3.96875,-3.96875 z m -16.53646,6.614583 a 1.9843749,1.9843749 0 0 1 1.98438,1.984375 1.9843749,1.9843749 0 0 1 -1.98438,1.984375 1.9843749,1.9843749 0 0 1 -1.98437,-1.984375 1.9843749,1.9843749 0 0 1 1.98437,-1.984375 z"
       style="opacity:1;fill:#ffffff;fill-opacity:1;stroke:none;stroke-width:0.97674751;stroke-linecap:square;stroke-miterlimit:0;stroke-dasharray:none;stroke-dashoffset:0;stroke-opacity:1" />
  </g>
</svg>
