<?xml version="1.0" encoding="UTF-8" standalone="no"?>
<svg
   xmlns:dc="http://purl.org/dc/elements/1.1/"
   xmlns:cc="http://creativecommons.org/ns#"
   xmlns:rdf="http://www.w3.org/1999/02/22-rdf-syntax-ns#"
   xmlns:svg="http://www.w3.org/2000/svg"
   xmlns="http://www.w3.org/2000/svg"
   id="svg5344"
   version="1.1"
   viewBox="0 0 58.208332 58.208335"
   height="220"
   width="220">
  <defs
     id="defs5338" />
  <metadata
     id="metadata5341">
    <rdf:RDF>
      <cc:Work
         rdf:about="">
        <dc:format>image/svg+xml</dc:format>
        <dc:type
           rdf:resource="http://purl.org/dc/dcmitype/StillImage" />
        <dc:title></dc:title>
      </cc:Work>
    </rdf:RDF>
  </metadata>
  <g
     transform="translate(-44.073961,-56.752911)"
     id="layer1">
    <path
       id="path4518-7-7-5"
       d="M 89.053128,59.398743 V 88.51893 a 13.229166,13.229166 0 0 0 -7.9375,-2.661854 13.229166,13.229166 0 0 0 -13.229167,13.229167 13.229166,13.229166 0 0 0 13.229167,13.229167 13.229166,13.229166 0 0 0 7.9375,-2.66599 v 2.66599 h 5.291666 V 99.086243 59.398743 Z M 71.855211,69.982076 a 19.843749,19.843749 0 0 0 -19.84375,19.84375 h 2.645833 A 17.197915,17.197915 0 0 1 71.855211,72.62791 Z m 0,5.291667 A 14.552082,14.552082 0 0 0 57.303127,89.825826 h 2.645834 a 11.906249,11.906249 0 0 1 11.90625,-11.90625 z m 0,5.291667 a 9.2604159,9.2604159 0 0 0 -9.260417,9.260416 h 2.645834 a 6.6145833,6.6145833 0 0 1 6.614583,-6.614583 z m 9.260417,10.583333 a 7.9375,7.9375 0 0 1 7.9375,7.9375 7.9375,7.9375 0 0 1 -7.9375,7.937497 7.9375,7.9375 0 0 1 -7.9375,-7.937497 7.9375,7.9375 0 0 1 7.9375,-7.9375 z"
       style="opacity:1;fill:#1abc9c;fill-opacity:1;stroke:none;stroke-width:0.97674751;stroke-linecap:square;stroke-miterlimit:0;stroke-dasharray:none;stroke-dashoffset:0;stroke-opacity:1" />
  </g>
</svg>
